<?xml version="1.0" encoding="UTF-8" standalone="no"?>
<!-- Created with Inkscape (http://www.inkscape.org/) -->

<svg
   width="32"
   height="32"
   viewBox="0 0 8.4666665 8.4666669"
   version="1.1"
   id="svg20503"
   xmlns="http://www.w3.org/2000/svg"
   xmlns:svg="http://www.w3.org/2000/svg">
  <defs
     id="defs20500" />
  <g
     id="layer1"
     transform="translate(-47.522762,-53.892683)">
    <rect
       style="fill:none;fill-opacity:0.0820193;stroke-width:0.264583"
       id="rect13339-6"
       width="8.4666672"
       height="8.4666672"
       x="47.522762"
       y="53.892681"
       rx="1.3229166"
       ry="1.3229166" />
    <path
       style="color:#000000;fill:#9e9e9e;stroke-linecap:round;-inkscape-stroke:none"
       d="m 50.3004,56.2745 a 0.39687499,0.39687499 0 0 0 -0.2793,0.1153 0.39687499,0.39687499 0 0 0 0,0.5625 l 1.1738,1.1738 -1.1738,1.1738 a 0.39687499,0.39687499 0 0 0 0,0.5625 0.39687499,0.39687499 0 0 0 0.5605,0 l 1.1758,-1.1738 1.1738,1.1738 a 0.39687499,0.39687499 0 0 0 0.5606,0 0.39687499,0.39687499 0 0 0 0,-0.5625 l -1.1739,-1.1738 1.1739,-1.1738 a 0.39687499,0.39687499 0 0 0 0,-0.5625 0.39687499,0.39687499 0 0 0 -0.5606,0 l -1.1738,1.1738 -1.1758,-1.1738 a 0.39687499,0.39687499 0 0 0 -0.2812,-0.1153 z"
       id="path13844-2" />
  </g>
</svg>
